<?xml version="1.0" standalone="no"?>
<!DOCTYPE svg PUBLIC "-//W3C//DTD SVG 20010904//EN"
 "http://www.w3.org/TR/2001/REC-SVG-20010904/DTD/svg10.dtd">
<svg version="1.0" xmlns="http://www.w3.org/2000/svg"
 width="1920.000000pt" height="1920.000000pt" viewBox="0 0 1920.000000 1920.000000"
 preserveAspectRatio="xMidYMid meet">
<metadata>
Created by potrace 1.14, written by Peter Selinger 2001-2017
</metadata>
<g transform="translate(0.000000,1920.000000) scale(0.100000,-0.100000)"
fill="#000000" stroke="none">
<path d="M9208 19195 c-1 -2 -59 -6 -128 -9 -69 -3 -147 -8 -175 -11 -27 -3
-79 -7 -115 -10 -63 -4 -130 -10 -235 -20 -56 -5 -113 -12 -165 -22 -19 -3
-48 -7 -65 -8 -67 -5 -404 -58 -505 -80 -14 -3 -38 -7 -55 -10 -16 -3 -50 -10
-75 -15 -25 -5 -56 -12 -70 -14 -70 -13 -232 -51 -370 -86 -85 -23 -162 -42
-170 -44 -8 -2 -33 -9 -55 -15 -22 -6 -43 -11 -47 -11 -4 0 -27 -8 -50 -16
-24 -9 -51 -17 -60 -19 -10 -2 -71 -21 -135 -41 -65 -21 -120 -38 -123 -39
-28 -7 -121 -39 -188 -64 -45 -17 -83 -30 -85 -30 -1 0 -13 -4 -27 -9 -14 -5
-81 -31 -150 -57 -69 -26 -138 -53 -155 -60 -123 -54 -200 -85 -212 -85 -7 0
-13 -5 -13 -12 0 -6 -3 -8 -6 -5 -4 3 -16 1 -28 -5 -11 -7 -23 -13 -26 -14 -7
-1 -101 -45 -169 -78 -30 -14 -60 -26 -67 -26 -7 0 -14 -3 -16 -7 -2 -7 -71
-43 -88 -48 -15 -4 -89 -42 -112 -58 -16 -10 -28 -15 -28 -11 0 3 -6 2 -12 -4
-7 -5 -53 -31 -103 -57 -150 -79 -333 -181 -398 -222 -21 -13 -53 -32 -70 -42
-313 -178 -749 -487 -1182 -838 -41 -33 -221 -188 -255 -219 -19 -18 -48 -44
-65 -59 -173 -154 -450 -431 -661 -659 -22 -24 -111 -126 -164 -186 -30 -35
-65 -75 -77 -89 -13 -14 -26 -30 -31 -36 -4 -5 -30 -37 -57 -71 -28 -33 -61
-75 -75 -94 -14 -18 -30 -38 -36 -44 -17 -18 -246 -325 -294 -396 -25 -36 -48
-67 -51 -70 -19 -16 -342 -520 -394 -615 -12 -22 -39 -71 -61 -109 -67 -116
-84 -148 -134 -241 -67 -127 -151 -295 -200 -400 -83 -178 -94 -201 -195 -440
-7 -16 -18 -41 -24 -55 -20 -47 -142 -369 -146 -385 -3 -15 -16 -48 -24 -65
-5 -9 -12 -31 -16 -50 -4 -19 -11 -41 -16 -50 -4 -8 -18 -46 -29 -85 -12 -38
-23 -76 -26 -83 -2 -7 -4 -16 -5 -20 -1 -4 -5 -18 -10 -31 -24 -62 -131 -446
-145 -518 -2 -12 -9 -34 -14 -48 -5 -14 -7 -25 -5 -25 2 0 1 -10 -4 -23 -5
-13 -12 -41 -15 -61 -4 -21 -8 -41 -11 -45 -3 -6 -56 -258 -68 -331 -3 -14
-12 -63 -20 -110 -15 -82 -21 -116 -32 -197 -3 -21 -7 -47 -10 -58 -4 -20 -12
-75 -20 -145 -2 -19 -6 -48 -9 -65 -5 -31 -14 -107 -22 -185 -12 -121 -15
-155 -29 -330 -20 -252 -27 -980 -12 -1225 17 -268 37 -485 61 -675 3 -19 7
-55 11 -80 8 -68 13 -104 15 -110 2 -3 2 -8 1 -12 0 -4 6 -44 13 -90 8 -46 17
-101 21 -123 3 -22 8 -47 10 -55 4 -13 7 -31 21 -120 2 -14 8 -47 14 -75 6
-27 12 -59 14 -70 24 -115 66 -295 107 -455 28 -107 51 -200 53 -207 1 -7 5
-16 9 -19 4 -4 7 -14 7 -23 0 -26 187 -612 211 -661 4 -8 21 -53 39 -100 17
-47 35 -94 40 -105 4 -11 16 -40 26 -65 9 -25 28 -69 41 -98 13 -29 23 -55 23
-57 0 -5 114 -263 141 -319 10 -22 19 -46 19 -53 0 -7 4 -13 9 -13 5 0 13 -10
17 -22 16 -52 182 -374 292 -568 60 -106 76 -134 114 -201 7 -13 15 -26 18
-29 3 -3 19 -27 35 -55 33 -58 123 -199 213 -333 34 -52 62 -98 62 -102 0 -5
3 -10 8 -12 4 -1 34 -41 66 -88 33 -47 63 -87 68 -88 4 -2 8 -9 8 -16 0 -7 11
-23 25 -36 14 -13 25 -29 25 -36 0 -7 4 -14 8 -16 5 -1 28 -30 52 -63 38 -51
171 -221 205 -262 5 -7 15 -18 20 -25 19 -25 100 -123 105 -128 3 -3 34 -39
70 -80 144 -165 208 -235 370 -403 205 -212 476 -469 644 -610 12 -9 30 -26
41 -36 11 -10 103 -84 205 -166 235 -188 234 -187 260 -205 38 -26 145 -104
150 -110 3 -3 12 -9 21 -15 30 -18 191 -130 203 -140 6 -6 36 -26 66 -45 30
-19 57 -38 58 -42 2 -5 8 -8 13 -8 6 0 39 -20 75 -45 35 -25 64 -42 64 -38 0
3 8 -1 18 -9 17 -15 159 -104 237 -149 318 -180 645 -352 713 -373 12 -4 22
-12 22 -17 0 -5 6 -9 13 -9 7 0 35 -11 63 -24 74 -35 264 -118 394 -171 63
-26 124 -51 135 -55 11 -5 58 -23 105 -40 47 -18 94 -36 105 -42 12 -5 27 -10
35 -11 8 -2 20 -5 25 -8 29 -17 572 -189 596 -189 9 0 19 -3 23 -7 3 -4 12 -8
19 -9 7 -2 100 -25 207 -53 170 -44 405 -99 450 -105 8 -2 40 -8 70 -14 30 -6
69 -14 85 -17 17 -3 41 -7 55 -9 52 -10 207 -36 245 -41 22 -4 54 -9 70 -12
63 -11 81 -13 125 -17 25 -3 77 -9 115 -14 39 -6 77 -10 85 -10 8 0 31 -3 50
-6 19 -3 64 -8 100 -11 36 -3 90 -8 120 -11 30 -3 84 -7 120 -9 36 -2 65 -4
65 -5 0 -14 945 -19 1150 -7 185 11 256 16 310 21 28 3 77 8 110 11 33 3 80 8
105 11 25 3 63 7 85 9 106 11 366 48 457 65 29 6 69 13 88 15 19 3 46 7 60 10
14 4 34 8 45 9 11 2 35 7 53 10 17 3 44 8 60 11 34 6 54 10 117 25 28 6 59 13
70 16 11 2 45 9 75 16 30 6 62 12 70 14 8 1 51 12 95 24 44 12 87 23 95 25 8
2 50 13 92 25 43 11 85 23 95 25 10 2 30 8 46 14 15 6 27 8 27 5 0 -4 6 -2 13
3 6 5 44 18 82 28 39 10 76 22 83 28 6 5 12 7 12 4 0 -3 33 6 73 19 39 14 77
27 82 28 20 4 180 59 190 65 6 3 15 6 20 7 13 2 329 121 380 143 155 67 244
104 263 108 12 3 22 9 22 14 0 5 7 9 16 9 9 0 28 6 42 14 15 8 63 31 107 52
153 70 413 202 575 292 30 16 83 45 118 63 34 18 62 37 62 42 0 4 4 6 9 2 5
-3 12 -1 15 3 3 5 46 33 96 63 130 77 163 97 180 108 98 67 275 181 281 181 4
0 9 3 11 8 2 4 23 21 48 37 25 17 50 35 57 40 7 6 44 33 83 60 161 113 476
358 610 474 270 235 310 271 515 471 97 94 316 321 400 415 39 43 75 83 80 89
10 11 101 116 189 220 27 32 65 79 85 104 19 26 40 52 46 58 5 6 19 23 30 38
11 16 25 33 31 40 5 6 50 65 100 131 49 66 93 124 97 130 99 126 487 720 487
745 0 6 4 10 8 10 4 0 13 12 19 28 13 30 55 104 64 112 5 4 37 64 171 315 50
94 128 257 128 266 0 5 5 9 10 9 6 0 10 6 10 14 0 8 18 50 40 95 22 44 40 82
40 85 0 2 14 34 32 72 17 38 32 71 33 74 0 5 60 147 90 215 7 17 34 86 60 155
26 69 51 134 55 145 4 11 8 23 9 27 2 11 51 149 62 173 10 25 108 333 113 360
4 19 34 123 56 190 5 17 21 77 35 135 26 102 31 120 39 158 2 10 11 47 19 83
9 35 19 80 23 99 4 19 9 40 10 45 2 6 6 24 9 40 3 17 8 44 12 60 4 17 8 35 9
40 1 6 9 51 19 100 9 50 18 99 20 110 2 11 6 36 9 55 3 19 8 51 11 70 3 19 8
51 11 70 8 55 13 82 19 119 3 19 8 55 10 80 2 25 5 46 5 46 2 0 7 38 14 102 3
26 8 68 10 93 7 56 19 187 30 320 28 338 28 1230 1 1415 -3 17 -7 71 -10 120
-3 50 -7 101 -10 115 -2 14 -7 59 -11 100 -3 41 -8 86 -9 100 -2 14 -6 48 -10
75 -3 28 -8 64 -10 82 -7 57 -16 116 -31 213 -9 52 -18 109 -20 125 -3 17 -7
37 -9 45 -3 8 -7 33 -11 55 -8 57 -10 70 -29 160 -9 44 -18 89 -20 100 -2 11
-11 52 -19 90 -9 39 -19 81 -22 95 -3 14 -19 79 -35 145 -17 66 -33 127 -35
135 -29 116 -121 434 -142 490 -3 8 -6 18 -7 23 -2 4 -3 8 -5 10 -1 1 -3 9 -5
17 -11 49 -186 530 -205 562 -5 10 -10 22 -10 28 0 5 -13 39 -30 75 -16 36
-30 69 -30 74 0 4 -6 21 -14 37 -40 81 -86 188 -86 200 0 8 -4 14 -10 14 -5 0
-10 5 -10 12 0 21 -278 580 -310 623 -4 6 -22 37 -39 70 -173 320 -583 940
-780 1181 -31 37 -45 55 -91 114 -19 25 -39 50 -45 56 -5 7 -21 26 -35 44 -14
18 -29 37 -35 44 -5 6 -50 58 -100 116 -222 259 -446 495 -705 741 -84 79
-238 220 -296 269 -16 14 -59 50 -94 80 -52 45 -174 145 -235 193 -5 4 -21 17
-35 28 -14 11 -86 66 -160 122 -74 56 -136 105 -138 109 -2 5 -8 8 -13 8 -6 0
-15 5 -22 11 -7 6 -84 60 -172 120 -88 60 -165 113 -172 119 -7 5 -15 10 -18
10 -4 0 -25 13 -48 29 -54 38 -336 211 -343 211 -3 0 -18 8 -32 19 -15 10 -63
37 -107 61 -44 24 -84 46 -90 50 -42 32 -602 310 -623 310 -7 0 -12 5 -12 10
0 6 -6 10 -14 10 -12 0 -119 46 -200 86 -16 8 -33 14 -37 14 -5 0 -38 14 -74
30 -36 17 -70 30 -75 30 -6 0 -18 5 -28 10 -25 15 -258 101 -402 150 -69 23
-134 46 -145 50 -22 9 -158 53 -215 69 -19 5 -66 19 -105 31 -38 12 -77 23
-85 24 -8 2 -35 9 -60 16 -25 7 -49 13 -55 14 -5 1 -35 10 -65 19 -30 9 -66
18 -80 21 -14 3 -63 15 -110 26 -92 21 -294 65 -375 81 -27 5 -61 11 -75 14
-30 6 -47 9 -165 29 -49 9 -108 18 -130 21 -22 4 -53 9 -70 12 -57 9 -80 13
-125 17 -25 3 -65 8 -90 11 -25 3 -63 8 -85 10 -22 2 -56 6 -75 9 -19 3 -64 8
-100 11 -36 3 -90 8 -120 11 -30 3 -84 7 -120 9 -36 2 -65 5 -65 5 0 8 -1018
23 -1027 15z"/>
</g>
</svg>
